<svg width="234" height="103" viewBox="0 0 234 103" fill="none" xmlns="http://www.w3.org/2000/svg">
<rect y="8" width="99" height="95" rx="20" fill="#D9D9D9"/>
<path d="M45.176 95H35.096C32.92 95 31.48 94.648 30.776 93.944C30.136 93.24 29.816 91.768 29.816 89.528V31.064C29.816 28.824 30.136 27.352 30.776 26.648C31.48 25.944 32.92 25.592 35.096 25.592H45.176V95ZM74.84 81.56V89.72C74.84 91.896 74.488 93.336 73.784 94.04C73.08 94.68 71.608 95 69.368 95H49.016V81.56H74.84ZM69.08 53.24V59C69.08 61.304 68.856 62.776 68.408 63.416C67.96 63.992 66.68 64.28 64.568 64.28H49.016V53.24H69.08ZM73.88 25.592V33.752C73.88 35.928 73.528 37.368 72.824 38.072C72.12 38.712 70.648 39.032 68.408 39.032H49.016V25.592H73.88Z" fill="#1762A7"/>
<path d="M116.344 87.552C116.344 87.8507 116.237 88 116.024 88H109.56C107.171 88 105.4 87.4453 104.248 86.336C103.139 85.2267 102.584 83.4133 102.584 80.896V41.792H106.488C108.365 41.792 109.773 42.2613 110.712 43.2C111.693 44.096 112.184 45.2693 112.184 46.72V80.768C112.184 82.0907 112.461 82.8373 113.016 83.008C113.315 83.136 113.72 83.2 114.232 83.2H115.832C116.173 83.2 116.344 83.3493 116.344 83.648V87.552ZM120.775 56.064H124.679C126.556 56.064 127.964 56.5333 128.903 57.472C129.884 58.368 130.375 59.5413 130.375 60.992V88H123.079C122.396 88 121.841 87.7653 121.415 87.296C120.988 86.8267 120.775 86.208 120.775 85.44V56.064ZM121.223 42.432C121.692 41.9627 123.057 41.728 125.319 41.728C127.58 41.728 128.945 41.9627 129.415 42.432C129.884 42.8587 130.119 44.1387 130.119 46.272C130.119 48.4053 129.863 49.7067 129.351 50.176C128.881 50.6453 127.537 50.88 125.319 50.88C123.1 50.88 121.735 50.6453 121.223 50.176C120.753 49.7067 120.519 48.4053 120.519 46.272C120.519 44.1387 120.753 42.8587 121.223 42.432ZM146.48 56V67.712C146.48 68.4373 146.587 68.9493 146.8 69.248C147.013 69.504 147.568 69.632 148.464 69.632H152.048V74.432H143.856C139.205 74.432 136.88 72.1493 136.88 67.584V63.104C136.88 60.288 137.584 58.4107 138.992 57.472C140.443 56.4907 142.939 56 146.48 56ZM146.608 77.888V81.28C146.608 82.0053 146.715 82.5173 146.928 82.816C147.141 83.072 147.696 83.2 148.592 83.2H152.048V88H143.984C139.333 88 137.008 85.7173 137.008 81.152V79.232C137.008 78.592 137.072 78.2293 137.2 78.144C137.371 78.0587 137.477 78.016 137.52 78.016C137.563 77.9733 137.669 77.952 137.84 77.952C138.053 77.9093 138.181 77.888 138.224 77.888C141.04 77.888 143.835 77.888 146.608 77.888ZM153.968 69.632H156.592C161.243 69.632 163.568 71.9147 163.568 76.48V80.896C163.568 83.712 162.843 85.6107 161.392 86.592C159.984 87.5307 157.509 88 153.968 88V69.632ZM148.4 56H156.464C161.115 56 163.44 58.2827 163.44 62.848V66.176C160.581 66.176 158.405 66.176 156.912 66.176C155.419 66.176 154.651 66.176 154.608 66.176C154.565 66.1333 154.48 66.112 154.352 66.112C154.267 66.0693 154.203 66.0267 154.16 65.984C154.117 65.9413 154.075 65.8987 154.032 65.856C153.989 65.7707 153.968 65.6853 153.968 65.6C153.883 65.2587 153.84 65.0027 153.84 64.832V62.72C153.84 61.9947 153.733 61.504 153.52 61.248C153.307 60.9493 152.752 60.8 151.856 60.8H148.4V56ZM178.918 56V67.712C178.918 68.4373 179.024 68.9493 179.238 69.248C179.451 69.504 180.006 69.632 180.902 69.632H184.486V74.432H176.294C171.643 74.432 169.318 72.1493 169.318 67.584V63.104C169.318 60.288 170.022 58.4107 171.43 57.472C172.88 56.4907 175.376 56 178.918 56ZM179.046 77.888V81.28C179.046 82.0053 179.152 82.5173 179.366 82.816C179.579 83.072 180.134 83.2 181.03 83.2H184.486V88H176.422C171.771 88 169.446 85.7173 169.446 81.152V79.232C169.446 78.592 169.51 78.2293 169.638 78.144C169.808 78.0587 169.915 78.016 169.958 78.016C170 77.9733 170.107 77.952 170.278 77.952C170.491 77.9093 170.619 77.888 170.661 77.888C173.477 77.888 176.272 77.888 179.046 77.888ZM186.406 69.632H189.03C193.68 69.632 196.006 71.9147 196.006 76.48V80.896C196.006 83.712 195.28 85.6107 193.83 86.592C192.422 87.5307 189.947 88 186.406 88V69.632ZM180.838 56H188.902C193.552 56 195.878 58.2827 195.878 62.848V66.176C193.019 66.176 190.843 66.176 189.35 66.176C187.856 66.176 187.088 66.176 187.046 66.176C187.003 66.1333 186.918 66.112 186.79 66.112C186.704 66.0693 186.64 66.0267 186.598 65.984C186.555 65.9413 186.512 65.8987 186.47 65.856C186.427 65.7707 186.406 65.6853 186.406 65.6C186.32 65.2587 186.278 65.0027 186.278 64.832V62.72C186.278 61.9947 186.171 61.504 185.958 61.248C185.744 60.9493 185.19 60.8 184.294 60.8H180.838V56ZM218.139 60.8H214.683C213.36 60.8 212.614 61.0347 212.443 61.504C212.187 62.0587 212.059 62.848 212.059 63.872V80.128C212.059 80.2133 212.059 80.4693 212.059 80.896C212.059 81.3227 212.102 81.6853 212.187 81.984C212.358 82.7947 213.19 83.2 214.683 83.2H218.139V88H211.931C210.31 88 208.987 87.936 207.963 87.808C206.939 87.6373 206.043 87.296 205.275 86.784C204.507 86.272 203.931 85.7173 203.547 85.12C203.163 84.48 202.843 83.4773 202.587 82.112C202.288 80.192 202.139 77.504 202.139 74.048C202.139 70.592 202.16 68.2667 202.203 67.072C202.246 65.8347 202.31 64.5333 202.395 63.168C202.523 61.8027 202.715 60.8 202.971 60.16C203.27 59.52 203.632 58.88 204.059 58.24C204.528 57.5573 205.126 57.088 205.851 56.832C207.43 56.2773 209.456 56 211.931 56H218.139V60.8ZM232.539 87.552C232.539 87.8507 232.454 88 232.283 88H227.035C224.646 88 222.875 87.4453 221.723 86.336C220.614 85.2267 220.059 83.4133 220.059 80.896V56H222.683C225.371 56 227.206 56.64 228.187 57.92C229.168 59.1573 229.659 60.8 229.659 62.848V80.768C229.659 82.0907 229.936 82.8373 230.491 83.008C230.79 83.136 231.195 83.2 231.707 83.2H232.027C232.368 83.2 232.539 83.3493 232.539 83.648V87.552Z" fill="black"/>
</svg>
